<svg width="40" height="40" viewBox="0 0 40 40" fill="none" xmlns="http://www.w3.org/2000/svg">
<path d="M20 0C8.88889 0 0 8.88889 0 20C0 31.1111 8.88889 40 20 40C31.1111 40 40 31.1111 40 20C40 8.88889 31.1111 0 20 0ZM20 15.5556C22.4444 15.5556 24.4444 17.5556 24.4444 20C24.4444 22.4444 22.4444 24.4444 20 24.4444C17.5556 24.4444 15.5556 22.4444 15.5556 20C15.5556 17.5556 17.5556 15.5556 20 15.5556ZM26.2222 11.1111C26.2222 9.55556 27.5556 8.44445 28.8889 8.44445C30.2222 8.44445 31.5556 9.77778 31.5556 11.1111C31.5556 12.4444 30.4444 13.7778 28.8889 13.7778C27.3333 13.7778 26.2222 12.6667 26.2222 11.1111ZM20 35.5556C11.3333 35.5556 4.44444 28.6667 4.44444 20H11.1111C11.1111 24.8889 15.1111 28.8889 20 28.8889C24.8889 28.8889 28.8889 24.8889 28.8889 20H35.5556C35.5556 28.6667 28.6667 35.5556 20 35.5556Z" fill="#828282"/>
</svg>
